<svg width="66" height="90" viewBox="0 0 66 90" fill="none" xmlns="http://www.w3.org/2000/svg">
<rect x="0.5" y="0.5" width="65" height="89" rx="4.5" stroke="#803DEC" style="stroke:#803DEC;stroke:color(display-p3 0.5020 0.2392 0.9255);stroke-opacity:1;" stroke-dasharray="10 5"/>
<path fill-rule="evenodd" clip-rule="evenodd" d="M27.2824 20C26.2323 20 25.2572 20.1865 24.3572 20.5594C23.4707 20.9323 22.7002 21.4503 22.0456 22.1133C21.4047 22.7901 20.9001 23.5843 20.5319 24.4959C20.1773 25.4075 20 26.4088 20 27.5C20 28.5773 20.1773 29.5718 20.5319 30.4834C20.9001 31.395 21.4047 32.1892 22.0456 32.866C22.7002 33.5428 23.4707 34.0677 24.3572 34.4406C25.2572 34.8135 26.2323 35 27.2824 35C28.3325 35 29.2939 34.8135 30.1667 34.4406C31.0532 34.0677 31.8237 33.5428 32.4783 32.866C33.1329 32.1892 33.6375 31.3881 33.992 30.4627C34.3584 29.5555 34.5425 28.5732 34.5443 27.5155H34.5651L34.565 27.4793C34.565 26.6091 34.7423 25.8287 35.0969 25.1381C35.4651 24.4613 35.956 23.9227 36.5697 23.5221C37.197 23.1354 37.9198 22.942 38.7381 22.942C39.3381 22.942 39.8904 23.0525 40.395 23.2735C40.8996 23.5083 41.336 23.826 41.7042 24.2265C42.0861 24.6409 42.3793 25.1243 42.5838 25.6768C42.7884 26.2293 42.8907 26.837 42.8907 27.5C42.8907 28.1492 42.7884 28.75 42.5838 29.3025C42.3793 29.855 42.0861 30.3384 41.7042 30.7528C41.336 31.1671 40.8996 31.4848 40.395 31.7058C39.8904 31.9406 39.3381 32.058 38.7381 32.058C38.1439 32.058 37.5899 31.9429 37.076 31.7127C36.6952 32.699 36.1799 33.5663 35.5301 34.3147C35.623 34.3584 35.7172 34.4004 35.8128 34.4406C36.7129 34.8135 37.688 35 38.7381 35C39.7881 35 40.7496 34.8135 41.6224 34.4406C42.5088 34.0677 43.2793 33.5428 43.9339 32.866C44.5885 32.1892 45.0931 31.3881 45.4477 30.4627C45.8159 29.5511 46 28.5635 46 27.5C46 26.4227 45.8159 25.4282 45.4477 24.5166C45.0931 23.605 44.5885 22.8108 43.9339 22.134C43.2793 21.4572 42.5088 20.9323 41.6224 20.5594C40.7496 20.1865 39.7881 20 38.7381 20C37.688 20 36.7129 20.1865 35.8128 20.5594C34.9264 20.9323 34.1559 21.4503 33.5013 22.1133C32.8603 22.7901 32.3557 23.5843 31.9875 24.4959C31.6329 25.4075 31.4557 26.4088 31.4557 27.5C31.4557 27.5834 31.4567 27.6662 31.4588 27.7486H31.4299C31.4069 28.3033 31.3064 28.8212 31.1282 29.3025C30.9236 29.855 30.6304 30.3384 30.2485 30.7528C29.8803 31.1671 29.4439 31.4848 28.9393 31.7058C28.4348 31.9406 27.8824 32.058 27.2824 32.058C26.6824 32.058 26.1232 31.9406 25.605 31.7058C25.1004 31.4848 24.6572 31.1671 24.2753 30.7528C23.9071 30.3522 23.6207 29.8688 23.4162 29.3025C23.2116 28.75 23.1093 28.1423 23.1093 27.4793C23.1093 26.6091 23.2866 25.8287 23.6412 25.1381C24.0094 24.4613 24.5004 23.9227 25.114 23.5221C25.7414 23.1354 26.4642 22.942 27.2824 22.942C27.8824 22.942 28.4348 23.0525 28.9393 23.2735L28.9394 23.2735C29.3361 22.3148 29.8466 21.4554 30.4707 20.6954C30.3709 20.648 30.2696 20.6027 30.1667 20.5594C29.2939 20.1865 28.3325 20 27.2824 20Z" fill="black" style="fill:black;fill-opacity:1;"/>
<path fill-rule="evenodd" clip-rule="evenodd" d="M27.2824 55C26.2323 55 25.2572 55.1865 24.3572 55.5594C23.4707 55.9323 22.7002 56.4503 22.0456 57.1133C21.4047 57.7901 20.9001 58.5843 20.5319 59.4959C20.1773 60.4075 20 61.4088 20 62.5C20 63.5773 20.1773 64.5718 20.5319 65.4834C20.9001 66.395 21.4047 67.1892 22.0456 67.866C22.7002 68.5428 23.4707 69.0677 24.3572 69.4406C25.2572 69.8135 26.2323 70 27.2824 70C28.3325 70 29.2939 69.8135 30.1667 69.4406C31.0532 69.0677 31.8237 68.5428 32.4783 67.866C33.1329 67.1892 33.6375 66.3881 33.992 65.4627C34.3584 64.5555 34.5425 63.5732 34.5443 62.5155H34.5651L34.565 62.4793C34.565 61.6091 34.7423 60.8287 35.0969 60.1381C35.4651 59.4613 35.956 58.9227 36.5697 58.5221C37.197 58.1354 37.9198 57.942 38.7381 57.942C39.3381 57.942 39.8904 58.0525 40.395 58.2735C40.8996 58.5083 41.336 58.826 41.7042 59.2265C42.0861 59.6409 42.3793 60.1243 42.5838 60.6768C42.7884 61.2293 42.8907 61.837 42.8907 62.5C42.8907 63.1492 42.7884 63.75 42.5838 64.3025C42.3793 64.855 42.0861 65.3384 41.7042 65.7528C41.336 66.1671 40.8996 66.4848 40.395 66.7058C39.8904 66.9406 39.3381 67.058 38.7381 67.058C38.1439 67.058 37.5899 66.9429 37.076 66.7127C36.6952 67.699 36.1799 68.5663 35.5301 69.3147C35.623 69.3584 35.7172 69.4004 35.8128 69.4406C36.7129 69.8135 37.688 70 38.7381 70C39.7881 70 40.7496 69.8135 41.6224 69.4406C42.5088 69.0677 43.2793 68.5428 43.9339 67.866C44.5885 67.1892 45.0931 66.3881 45.4477 65.4627C45.8159 64.5511 46 63.5635 46 62.5C46 61.4227 45.8159 60.4282 45.4477 59.5166C45.0931 58.605 44.5885 57.8108 43.9339 57.134C43.2793 56.4572 42.5088 55.9323 41.6224 55.5594C40.7496 55.1865 39.7881 55 38.7381 55C37.688 55 36.7129 55.1865 35.8128 55.5594C34.9264 55.9323 34.1559 56.4503 33.5013 57.1133C32.8603 57.7901 32.3557 58.5843 31.9875 59.4959C31.6329 60.4075 31.4557 61.4088 31.4557 62.5C31.4557 62.5834 31.4567 62.6662 31.4588 62.7486H31.4299C31.4069 63.3033 31.3064 63.8212 31.1282 64.3025C30.9236 64.855 30.6304 65.3384 30.2485 65.7528C29.8803 66.1671 29.4439 66.4848 28.9393 66.7058C28.4348 66.9406 27.8824 67.058 27.2824 67.058C26.6824 67.058 26.1232 66.9406 25.605 66.7058C25.1004 66.4848 24.6572 66.1671 24.2753 65.7528C23.9071 65.3522 23.6207 64.8688 23.4162 64.3025C23.2116 63.75 23.1093 63.1423 23.1093 62.4793C23.1093 61.6091 23.2866 60.8287 23.6412 60.1381C24.0094 59.4613 24.5004 58.9227 25.114 58.5221C25.7414 58.1354 26.4642 57.942 27.2824 57.942C27.8824 57.942 28.4348 58.0525 28.9393 58.2735L28.9394 58.2735C29.3361 57.3148 29.8466 56.4554 30.4707 55.6954C30.3709 55.648 30.2696 55.6027 30.1667 55.5594C29.2939 55.1865 28.3325 55 27.2824 55Z" fill="white" style="fill:white;fill-opacity:1;"/>
</svg>
