<svg width="208" height="139" viewBox="0 0 208 139" fill="none" xmlns="http://www.w3.org/2000/svg">
<rect x="0.5" y="0.5" width="207" height="138" rx="4.5" stroke="#803DEC" style="stroke:#803DEC;stroke:color(display-p3 0.5020 0.2392 0.9255);stroke-opacity:1;" stroke-dasharray="10 5"/>
<path d="M87.7383 34.48V20.48H90.4783L95.5583 28.76L93.7783 28.74L98.9383 20.48H101.578V34.48H98.6383V29.74C98.6383 28.5266 98.665 27.4333 98.7183 26.46C98.785 25.4866 98.8916 24.5266 99.0383 23.58L99.3783 24.52L95.2783 30.86H93.9383L89.9383 24.56L90.2583 23.58C90.4183 24.4733 90.525 25.3933 90.5783 26.34C90.645 27.2866 90.6783 28.42 90.6783 29.74V34.48H87.7383Z" fill="black" style="fill:black;fill-opacity:1;"/>
<path d="M75.8428 34.48V20.48H85.2828V23.12H78.7828V31.84H85.4228V34.48H75.8428ZM77.2428 28.62V26.06H84.3228V28.62H77.2428Z" fill="black" style="fill:black;fill-opacity:1;"/>
<path d="M68.5662 34.6802C67.2595 34.6802 66.1395 34.4469 65.2062 33.9802C64.2862 33.5002 63.4928 32.8069 62.8262 31.9002L64.7062 29.7802C65.3595 30.6869 66.0062 31.3069 66.6462 31.6402C67.2995 31.9602 67.9995 32.1202 68.7462 32.1202C69.1595 32.1202 69.5262 32.0602 69.8462 31.9402C70.1795 31.8202 70.4395 31.6535 70.6262 31.4402C70.8262 31.2269 70.9262 30.9802 70.9262 30.7002C70.9262 30.4869 70.8795 30.2935 70.7862 30.1202C70.6928 29.9335 70.5595 29.7735 70.3862 29.6402C70.2128 29.4935 70.0062 29.3669 69.7662 29.2602C69.5262 29.1402 69.2595 29.0402 68.9662 28.9602C68.6728 28.8802 68.3528 28.8069 68.0062 28.7402C67.2595 28.5802 66.6062 28.3735 66.0462 28.1202C65.4862 27.8669 65.0195 27.5602 64.6462 27.2002C64.2728 26.8402 63.9928 26.4269 63.8062 25.9602C63.6328 25.4802 63.5462 24.9469 63.5462 24.3602C63.5462 23.5335 63.7795 22.8135 64.2462 22.2002C64.7128 21.5735 65.3328 21.0869 66.1062 20.7402C66.8795 20.3802 67.7328 20.2002 68.6662 20.2002C69.9328 20.2002 70.9728 20.4135 71.7862 20.8402C72.6128 21.2669 73.2728 21.8669 73.7662 22.6402L71.8462 24.5202C71.4328 23.9469 70.9595 23.5135 70.4262 23.2202C69.8928 22.9269 69.3195 22.7802 68.7062 22.7802C68.2795 22.7802 67.8995 22.8402 67.5662 22.9602C67.2462 23.0669 66.9995 23.2335 66.8262 23.4602C66.6528 23.6735 66.5662 23.9269 66.5662 24.2202C66.5662 24.4602 66.6262 24.6735 66.7462 24.8602C66.8662 25.0469 67.0328 25.2135 67.2462 25.3602C67.4728 25.4935 67.7462 25.6135 68.0662 25.7202C68.3862 25.8269 68.7395 25.9135 69.1262 25.9802C69.8595 26.1269 70.5195 26.3269 71.1062 26.5802C71.6928 26.8202 72.1928 27.1135 72.6062 27.4602C73.0328 27.8069 73.3595 28.2069 73.5862 28.6602C73.8128 29.1135 73.9262 29.6202 73.9262 30.1802C73.9262 31.1269 73.6995 31.9335 73.2462 32.6002C72.7928 33.2669 72.1662 33.7802 71.3662 34.1402C70.5662 34.5002 69.6328 34.6802 68.5662 34.6802Z" fill="black" style="fill:black;fill-opacity:1;"/>
<path d="M55.6642 34.6C54.5308 34.6 53.5175 34.3666 52.6242 33.9C51.7442 33.42 51.0508 32.7666 50.5442 31.94C50.0375 31.1 49.7842 30.1533 49.7842 29.1V20.46H52.7842V28.92C52.7842 29.48 52.9108 29.9866 53.1642 30.44C53.4308 30.88 53.7842 31.2333 54.2242 31.5C54.6642 31.7666 55.1442 31.9 55.6642 31.9C56.2108 31.9 56.7042 31.7666 57.1442 31.5C57.5975 31.2333 57.9508 30.88 58.2042 30.44C58.4708 29.9866 58.6042 29.48 58.6042 28.92V20.46H61.5042V29.1C61.5042 30.1533 61.2508 31.1 60.7442 31.94C60.2508 32.7666 59.5642 33.42 58.6842 33.9C57.8042 34.3666 56.7975 34.6 55.6642 34.6Z" fill="black" style="fill:black;fill-opacity:1;"/>
<path d="M40.8886 34.6802C39.8619 34.6802 38.9086 34.5002 38.0286 34.1402C37.1619 33.7802 36.4086 33.2802 35.7686 32.6402C35.1419 31.9869 34.6486 31.2202 34.2886 30.3402C33.9419 29.4602 33.7686 28.4935 33.7686 27.4402C33.7686 26.4002 33.9419 25.4402 34.2886 24.5602C34.6486 23.6802 35.1419 22.9135 35.7686 22.2602C36.4086 21.6069 37.1619 21.1002 38.0286 20.7402C38.9086 20.3802 39.8619 20.2002 40.8886 20.2002C41.9152 20.2002 42.8552 20.3802 43.7086 20.7402C44.5752 21.1002 45.3286 21.6069 45.9686 22.2602C46.6086 22.9135 47.1019 23.6869 47.4486 24.5802C47.8086 25.4602 47.9886 26.4135 47.9886 27.4402C47.9886 28.4802 47.8086 29.4402 47.4486 30.3202C47.1019 31.2002 46.6086 31.9669 45.9686 32.6202C45.3286 33.2735 44.5752 33.7802 43.7086 34.1402C42.8552 34.5002 41.9152 34.6802 40.8886 34.6802ZM40.8886 31.8402C41.4752 31.8402 42.0152 31.7335 42.5086 31.5202C43.0019 31.2935 43.4286 30.9869 43.7886 30.6002C44.1619 30.2002 44.4486 29.7335 44.6486 29.2002C44.8486 28.6669 44.9486 28.0802 44.9486 27.4402C44.9486 26.8135 44.8486 26.2335 44.6486 25.7002C44.4486 25.1669 44.1619 24.7002 43.7886 24.3002C43.4286 23.9002 43.0019 23.5935 42.5086 23.3802C42.0152 23.1535 41.4752 23.0402 40.8886 23.0402C40.3019 23.0402 39.7552 23.1535 39.2486 23.3802C38.7552 23.5935 38.3219 23.9002 37.9486 24.3002C37.5886 24.6869 37.3086 25.1535 37.1086 25.7002C36.9086 26.2335 36.8086 26.8202 36.8086 27.4602C36.8086 28.3002 36.9819 29.0535 37.3286 29.7202C37.6886 30.3735 38.1686 30.8935 38.7686 31.2802C39.3819 31.6535 40.0886 31.8402 40.8886 31.8402Z" fill="black" style="fill:black;fill-opacity:1;"/>
<path d="M28.84 34.48V20.48H31.84V34.48H28.84ZM20 34.48V20.48H23V34.48H20ZM21.22 28.88V26.12H30.36V28.88H21.22Z" fill="black" style="fill:black;fill-opacity:1;"/>
<path d="M130.2 34.4805V20.4805H135.96C136.974 20.4805 137.9 20.6538 138.74 21.0005C139.58 21.3338 140.3 21.8138 140.9 22.4405C141.5 23.0538 141.96 23.7938 142.28 24.6605C142.6 25.5138 142.76 26.4538 142.76 27.4805C142.76 28.5205 142.6 29.4671 142.28 30.3205C141.96 31.1738 141.5 31.9138 140.9 32.5405C140.3 33.1538 139.58 33.6338 138.74 33.9805C137.914 34.3138 136.987 34.4805 135.96 34.4805H130.2ZM133.2 32.2805L132.88 31.7805H135.86C136.46 31.7805 136.994 31.6805 137.46 31.4805C137.94 31.2805 138.347 30.9938 138.68 30.6205C139.027 30.2338 139.287 29.7805 139.46 29.2605C139.634 28.7271 139.72 28.1338 139.72 27.4805C139.72 26.8271 139.634 26.2405 139.46 25.7205C139.287 25.1871 139.027 24.7338 138.68 24.3605C138.347 23.9738 137.94 23.6805 137.46 23.4805C136.994 23.2805 136.46 23.1805 135.86 23.1805H132.82L133.2 22.7205V32.2805Z" fill="black" style="fill:black;fill-opacity:1;"/>
<path fill-rule="evenodd" clip-rule="evenodd" d="M110.3 20C109.273 20 108.32 20.18 107.44 20.54C106.573 20.9 105.82 21.4 105.18 22.04C104.553 22.6933 104.06 23.46 103.7 24.34C103.353 25.22 103.18 26.1866 103.18 27.24C103.18 28.28 103.353 29.24 103.7 30.12C104.06 31 104.553 31.7666 105.18 32.42C105.82 33.0733 106.573 33.58 107.44 33.94C108.32 34.3 109.273 34.48 110.3 34.48C111.326 34.48 112.266 34.3 113.12 33.94C113.986 33.58 114.74 33.0733 115.38 32.42C116.02 31.7666 116.513 30.9933 116.86 30.1C117.218 29.2243 117.398 28.2759 117.4 27.255H117.42L117.42 27.22C117.42 26.38 117.593 25.6266 117.94 24.96C118.3 24.3066 118.78 23.7866 119.38 23.4C119.993 23.0266 120.7 22.84 121.5 22.84C122.087 22.84 122.627 22.9466 123.12 23.16C123.613 23.3866 124.04 23.6933 124.4 24.08C124.773 24.48 125.06 24.9466 125.26 25.48C125.46 26.0133 125.56 26.6 125.56 27.24C125.56 27.8666 125.46 28.4466 125.26 28.98C125.06 29.5133 124.773 29.98 124.4 30.38C124.04 30.78 123.613 31.0866 123.12 31.3C122.627 31.5266 122.087 31.64 121.5 31.64C120.919 31.64 120.377 31.5289 119.875 31.3067C119.503 32.2587 118.999 33.096 118.363 33.8184C118.454 33.8606 118.546 33.9012 118.64 33.94C119.52 34.3 120.473 34.48 121.5 34.48C122.527 34.48 123.467 34.3 124.32 33.94C125.187 33.58 125.94 33.0733 126.58 32.42C127.22 31.7666 127.713 30.9933 128.06 30.1C128.42 29.22 128.6 28.2666 128.6 27.24C128.6 26.2 128.42 25.24 128.06 24.36C127.713 23.48 127.22 22.7133 126.58 22.06C125.94 21.4066 125.187 20.9 124.32 20.54C123.467 20.18 122.527 20 121.5 20C120.473 20 119.52 20.18 118.64 20.54C117.773 20.9 117.02 21.4 116.38 22.04C115.753 22.6933 115.26 23.46 114.9 24.34C114.553 25.22 114.38 26.1866 114.38 27.24C114.38 27.3205 114.381 27.4005 114.383 27.48H114.355C114.332 28.0154 114.234 28.5154 114.06 28.98C113.86 29.5133 113.573 29.98 113.2 30.38C112.84 30.78 112.413 31.0866 111.92 31.3C111.426 31.5266 110.886 31.64 110.3 31.64C109.713 31.64 109.166 31.5266 108.66 31.3C108.166 31.0866 107.733 30.78 107.36 30.38C107 29.9933 106.72 29.5266 106.52 28.98C106.32 28.4466 106.22 27.86 106.22 27.22C106.22 26.38 106.393 25.6266 106.74 24.96C107.1 24.3066 107.58 23.7866 108.18 23.4C108.793 23.0266 109.5 22.84 110.3 22.84C110.886 22.84 111.426 22.9466 111.92 23.16L111.92 23.16C112.308 22.2346 112.807 21.405 113.417 20.6713C113.319 20.6255 113.22 20.5818 113.12 20.54C112.266 20.18 111.326 20 110.3 20Z" fill="black" style="fill:black;fill-opacity:1;"/>
<path d="M87.7383 69.1597V55.1597H90.4783L95.5583 63.4397L93.7783 63.4197L98.9383 55.1597H101.578V69.1597H98.6383V64.4197C98.6383 63.2063 98.665 62.113 98.7183 61.1397C98.785 60.1663 98.8916 59.2063 99.0383 58.2597L99.3783 59.1997L95.2783 65.5397H93.9383L89.9383 59.2397L90.2583 58.2597C90.4183 59.153 90.525 60.073 90.5783 61.0197C90.645 61.9663 90.6783 63.0997 90.6783 64.4197V69.1597H87.7383Z" fill="white" style="fill:white;fill-opacity:1;"/>
<path d="M75.8428 69.1597V55.1597H85.2828V57.7997H78.7828V66.5197H85.4228V69.1597H75.8428ZM77.2428 63.2997V60.7397H84.3228V63.2997H77.2428Z" fill="white" style="fill:white;fill-opacity:1;"/>
<path d="M68.5662 69.3599C67.2595 69.3599 66.1395 69.1265 65.2062 68.6599C64.2862 68.1799 63.4928 67.4866 62.8262 66.5799L64.7062 64.4599C65.3595 65.3665 66.0062 65.9866 66.6462 66.3199C67.2995 66.6399 67.9995 66.7999 68.7462 66.7999C69.1595 66.7999 69.5262 66.7399 69.8462 66.6199C70.1795 66.4999 70.4395 66.3332 70.6262 66.1199C70.8262 65.9066 70.9262 65.6599 70.9262 65.3799C70.9262 65.1665 70.8795 64.9732 70.7862 64.7999C70.6928 64.6132 70.5595 64.4532 70.3862 64.3199C70.2128 64.1732 70.0062 64.0465 69.7662 63.9399C69.5262 63.8199 69.2595 63.7199 68.9662 63.6399C68.6728 63.5599 68.3528 63.4866 68.0062 63.4199C67.2595 63.2599 66.6062 63.0532 66.0462 62.7999C65.4862 62.5465 65.0195 62.2399 64.6462 61.8799C64.2728 61.5199 63.9928 61.1065 63.8062 60.6399C63.6328 60.1599 63.5462 59.6265 63.5462 59.0399C63.5462 58.2132 63.7795 57.4932 64.2462 56.8799C64.7128 56.2532 65.3328 55.7665 66.1062 55.4199C66.8795 55.0599 67.7328 54.8799 68.6662 54.8799C69.9328 54.8799 70.9728 55.0932 71.7862 55.5199C72.6128 55.9465 73.2728 56.5465 73.7662 57.3199L71.8462 59.1999C71.4328 58.6265 70.9595 58.1932 70.4262 57.8999C69.8928 57.6065 69.3195 57.4599 68.7062 57.4599C68.2795 57.4599 67.8995 57.5199 67.5662 57.6399C67.2462 57.7466 66.9995 57.9132 66.8262 58.1399C66.6528 58.3532 66.5662 58.6065 66.5662 58.8999C66.5662 59.1399 66.6262 59.3532 66.7462 59.5399C66.8662 59.7265 67.0328 59.8932 67.2462 60.0399C67.4728 60.1732 67.7462 60.2932 68.0662 60.3999C68.3862 60.5066 68.7395 60.5932 69.1262 60.6599C69.8595 60.8066 70.5195 61.0065 71.1062 61.2599C71.6928 61.4999 72.1928 61.7932 72.6062 62.1399C73.0328 62.4865 73.3595 62.8865 73.5862 63.3399C73.8128 63.7932 73.9262 64.2999 73.9262 64.8599C73.9262 65.8066 73.6995 66.6132 73.2462 67.2799C72.7928 67.9466 72.1662 68.4599 71.3662 68.8199C70.5662 69.1799 69.6328 69.3599 68.5662 69.3599Z" fill="white" style="fill:white;fill-opacity:1;"/>
<path d="M55.6642 69.2796C54.5308 69.2796 53.5175 69.0463 52.6242 68.5796C51.7442 68.0996 51.0508 67.4463 50.5442 66.6196C50.0375 65.7796 49.7842 64.833 49.7842 63.7796V55.1396H52.7842V63.5996C52.7842 64.1596 52.9108 64.6663 53.1642 65.1196C53.4308 65.5596 53.7842 65.913 54.2242 66.1796C54.6642 66.4463 55.1442 66.5796 55.6642 66.5796C56.2108 66.5796 56.7042 66.4463 57.1442 66.1796C57.5975 65.913 57.9508 65.5596 58.2042 65.1196C58.4708 64.6663 58.6042 64.1596 58.6042 63.5996V55.1396H61.5042V63.7796C61.5042 64.833 61.2508 65.7796 60.7442 66.6196C60.2508 67.4463 59.5642 68.0996 58.6842 68.5796C57.8042 69.0463 56.7975 69.2796 55.6642 69.2796Z" fill="white" style="fill:white;fill-opacity:1;"/>
<path d="M40.8886 69.3599C39.8619 69.3599 38.9086 69.1799 38.0286 68.8199C37.1619 68.4599 36.4086 67.9599 35.7686 67.3199C35.1419 66.6665 34.6486 65.8999 34.2886 65.0199C33.9419 64.1399 33.7686 63.1732 33.7686 62.1199C33.7686 61.0799 33.9419 60.1199 34.2886 59.2399C34.6486 58.3599 35.1419 57.5932 35.7686 56.9399C36.4086 56.2865 37.1619 55.7799 38.0286 55.4199C38.9086 55.0599 39.8619 54.8799 40.8886 54.8799C41.9152 54.8799 42.8552 55.0599 43.7086 55.4199C44.5752 55.7799 45.3286 56.2865 45.9686 56.9399C46.6086 57.5932 47.1019 58.3665 47.4486 59.2599C47.8086 60.1399 47.9886 61.0932 47.9886 62.1199C47.9886 63.1599 47.8086 64.1199 47.4486 64.9999C47.1019 65.8799 46.6086 66.6465 45.9686 67.2999C45.3286 67.9532 44.5752 68.4599 43.7086 68.8199C42.8552 69.1799 41.9152 69.3599 40.8886 69.3599ZM40.8886 66.5199C41.4752 66.5199 42.0152 66.4132 42.5086 66.1999C43.0019 65.9732 43.4286 65.6665 43.7886 65.2799C44.1619 64.8799 44.4486 64.4132 44.6486 63.8799C44.8486 63.3465 44.9486 62.7599 44.9486 62.1199C44.9486 61.4932 44.8486 60.9132 44.6486 60.3799C44.4486 59.8465 44.1619 59.3799 43.7886 58.9799C43.4286 58.5799 43.0019 58.2732 42.5086 58.0599C42.0152 57.8332 41.4752 57.7199 40.8886 57.7199C40.3019 57.7199 39.7552 57.8332 39.2486 58.0599C38.7552 58.2732 38.3219 58.5799 37.9486 58.9799C37.5886 59.3665 37.3086 59.8332 37.1086 60.3799C36.9086 60.9132 36.8086 61.4999 36.8086 62.1399C36.8086 62.9799 36.9819 63.7332 37.3286 64.3999C37.6886 65.0532 38.1686 65.5732 38.7686 65.9599C39.3819 66.3332 40.0886 66.5199 40.8886 66.5199Z" fill="white" style="fill:white;fill-opacity:1;"/>
<path d="M28.84 69.1597V55.1597H31.84V69.1597H28.84ZM20 69.1597V55.1597H23V69.1597H20ZM21.22 63.5597V60.7997H30.36V63.5597H21.22Z" fill="white" style="fill:white;fill-opacity:1;"/>
<path d="M130.2 69.1602V55.1602H135.96C136.974 55.1602 137.9 55.3335 138.74 55.6802C139.58 56.0135 140.3 56.4935 140.9 57.1202C141.5 57.7335 141.96 58.4735 142.28 59.3402C142.6 60.1935 142.76 61.1335 142.76 62.1602C142.76 63.2002 142.6 64.1468 142.28 65.0002C141.96 65.8535 141.5 66.5935 140.9 67.2202C140.3 67.8335 139.58 68.3135 138.74 68.6602C137.914 68.9935 136.987 69.1602 135.96 69.1602H130.2ZM133.2 66.9602L132.88 66.4602H135.86C136.46 66.4602 136.994 66.3602 137.46 66.1602C137.94 65.9602 138.347 65.6735 138.68 65.3002C139.027 64.9135 139.287 64.4602 139.46 63.9402C139.634 63.4068 139.72 62.8135 139.72 62.1602C139.72 61.5068 139.634 60.9202 139.46 60.4002C139.287 59.8668 139.027 59.4135 138.68 59.0402C138.347 58.6535 137.94 58.3602 137.46 58.1602C136.994 57.9602 136.46 57.8602 135.86 57.8602H132.82L133.2 57.4002V66.9602Z" fill="white" style="fill:white;fill-opacity:1;"/>
<path fill-rule="evenodd" clip-rule="evenodd" d="M110.3 54.6802C109.273 54.6802 108.32 54.8602 107.44 55.2202C106.573 55.5802 105.82 56.0802 105.18 56.7202C104.553 57.3735 104.06 58.1402 103.7 59.0202C103.353 59.9002 103.18 60.8668 103.18 61.9202C103.18 62.9602 103.353 63.9202 103.7 64.8002C104.06 65.6802 104.553 66.4468 105.18 67.1002C105.82 67.7535 106.573 68.2602 107.44 68.6202C108.32 68.9802 109.273 69.1602 110.3 69.1602C111.326 69.1602 112.266 68.9802 113.12 68.6202C113.986 68.2602 114.74 67.7535 115.38 67.1002C116.02 66.4468 116.513 65.6735 116.86 64.7802C117.218 63.9044 117.398 62.9561 117.4 61.9352H117.42L117.42 61.9002C117.42 61.0602 117.593 60.3068 117.94 59.6402C118.3 58.9868 118.78 58.4668 119.38 58.0802C119.993 57.7068 120.7 57.5202 121.5 57.5202C122.087 57.5202 122.627 57.6268 123.12 57.8402C123.613 58.0668 124.04 58.3735 124.4 58.7602C124.773 59.1602 125.06 59.6268 125.26 60.1602C125.46 60.6935 125.56 61.2802 125.56 61.9202C125.56 62.5468 125.46 63.1268 125.26 63.6602C125.06 64.1935 124.773 64.6602 124.4 65.0602C124.04 65.4602 123.613 65.7668 123.12 65.9802C122.627 66.2068 122.087 66.3202 121.5 66.3202C120.919 66.3202 120.377 66.2091 119.875 65.9868C119.503 66.9389 118.999 67.7761 118.363 68.4986C118.454 68.5408 118.546 68.5813 118.64 68.6202C119.52 68.9802 120.473 69.1602 121.5 69.1602C122.527 69.1602 123.467 68.9802 124.32 68.6202C125.187 68.2602 125.94 67.7535 126.58 67.1002C127.22 66.4468 127.713 65.6735 128.06 64.7802C128.42 63.9002 128.6 62.9468 128.6 61.9202C128.6 60.8802 128.42 59.9202 128.06 59.0402C127.713 58.1602 127.22 57.3935 126.58 56.7402C125.94 56.0868 125.187 55.5802 124.32 55.2202C123.467 54.8602 122.527 54.6802 121.5 54.6802C120.473 54.6802 119.52 54.8602 118.64 55.2202C117.773 55.5802 117.02 56.0802 116.38 56.7202C115.753 57.3735 115.26 58.1402 114.9 59.0202C114.553 59.9002 114.38 60.8668 114.38 61.9202C114.38 62.0006 114.381 62.0806 114.383 62.1602H114.355C114.332 62.6956 114.234 63.1956 114.06 63.6602C113.86 64.1935 113.573 64.6602 113.2 65.0602C112.84 65.4602 112.413 65.7668 111.92 65.9802C111.426 66.2068 110.886 66.3202 110.3 66.3202C109.713 66.3202 109.166 66.2068 108.66 65.9802C108.166 65.7668 107.733 65.4602 107.36 65.0602C107 64.6735 106.72 64.2068 106.52 63.6602C106.32 63.1268 106.22 62.5402 106.22 61.9002C106.22 61.0602 106.393 60.3068 106.74 59.6402C107.1 58.9868 107.58 58.4668 108.18 58.0802C108.793 57.7068 109.5 57.5202 110.3 57.5202C110.886 57.5202 111.426 57.6268 111.92 57.8402L111.92 57.8402C112.308 56.9147 112.807 56.0851 113.417 55.3514C113.319 55.3057 113.22 55.2619 113.12 55.2202C112.266 54.8602 111.326 54.6802 110.3 54.6802Z" fill="white" style="fill:white;fill-opacity:1;"/>
<path d="M106.08 107.741V89.6211H109.561L116.017 100.338L113.755 100.312L120.312 89.6211H123.667V107.741H119.931V101.606C119.931 100.036 119.965 98.6206 120.033 97.3609C120.117 96.1011 120.253 94.8586 120.439 93.6334L120.871 94.85L115.661 103.056H113.958L108.875 94.9017L109.282 93.6334C109.485 94.7896 109.621 95.9803 109.689 97.2056C109.773 98.4308 109.816 99.8977 109.816 101.606V107.741H106.08Z" fill="white" style="fill:white;fill-opacity:1;"/>
<path d="M90.9634 107.741V89.6211H102.959V93.038H94.6994V104.324H103.137V107.741H90.9634ZM92.7425 100.157V96.8432H101.74V100.157H92.7425Z" fill="white" style="fill:white;fill-opacity:1;"/>
<path d="M81.7166 108C80.0561 108 78.6329 107.698 77.4468 107.094C76.2777 106.473 75.2695 105.575 74.4224 104.402L76.8114 101.658C77.6416 102.831 78.4634 103.634 79.2767 104.065C80.1069 104.479 80.9965 104.687 81.9453 104.687C82.4706 104.687 82.9365 104.609 83.3432 104.454C83.7668 104.298 84.0972 104.083 84.3344 103.806C84.5885 103.53 84.7156 103.211 84.7156 102.849C84.7156 102.573 84.6563 102.322 84.5377 102.098C84.4191 101.856 84.2497 101.649 84.0294 101.477C83.8091 101.287 83.5465 101.123 83.2415 100.985C82.9365 100.83 82.5977 100.7 82.2249 100.597C81.8521 100.493 81.4455 100.398 81.005 100.312C80.0561 100.105 79.2259 99.8374 78.5142 99.5095C77.8026 99.1816 77.2096 98.7847 76.7352 98.3187C76.2607 97.8528 75.9049 97.3178 75.6677 96.7138C75.4475 96.0926 75.3373 95.4023 75.3373 94.643C75.3373 93.573 75.6338 92.6412 76.2269 91.8473C76.8199 91.0363 77.6078 90.4064 78.5905 89.9577C79.5732 89.4918 80.6576 89.2588 81.8437 89.2588C83.4533 89.2588 84.7749 89.5349 85.8085 90.0871C86.859 90.6394 87.6977 91.4159 88.3246 92.4168L85.8847 94.8501C85.3595 94.108 84.758 93.5472 84.0802 93.1675C83.4025 92.7879 82.6739 92.598 81.8945 92.598C81.3523 92.598 80.8694 92.6757 80.4458 92.831C80.0392 92.9691 79.7257 93.1848 79.5054 93.4781C79.2852 93.7542 79.175 94.0821 79.175 94.4618C79.175 94.7724 79.2513 95.0485 79.4038 95.2901C79.5563 95.5317 79.7681 95.7474 80.0392 95.9373C80.3272 96.1098 80.6746 96.2651 81.0812 96.4032C81.4878 96.5413 81.9369 96.6534 82.4282 96.7397C83.3601 96.9295 84.1988 97.1884 84.9443 97.5163C85.6899 97.8269 86.3252 98.2066 86.8505 98.6552C87.3927 99.1039 87.8078 99.6216 88.0959 100.208C88.3839 100.795 88.5279 101.451 88.5279 102.176C88.5279 103.401 88.2399 104.445 87.6638 105.308C87.0877 106.171 86.2914 106.835 85.2747 107.301C84.2581 107.767 83.0721 108 81.7166 108Z" fill="white" style="fill:white;fill-opacity:1;"/>
<path d="M65.3208 107.896C63.8806 107.896 62.5928 107.594 61.4576 106.99C60.3393 106.369 59.4583 105.523 58.8144 104.454C58.1706 103.366 57.8486 102.141 57.8486 100.778V89.5952H61.6609V100.545C61.6609 101.27 61.8219 101.925 62.1438 102.512C62.4827 103.082 62.9317 103.539 63.4909 103.884C64.05 104.229 64.66 104.402 65.3208 104.402C66.0154 104.402 66.6424 104.229 67.2015 103.884C67.7776 103.539 68.2266 103.082 68.5485 102.512C68.8874 101.925 69.0568 101.27 69.0568 100.545V89.5952H72.7421V100.778C72.7421 102.141 72.4201 103.366 71.7763 104.454C71.1494 105.523 70.2768 106.369 69.1585 106.99C68.0402 107.594 66.761 107.896 65.3208 107.896Z" fill="white" style="fill:white;fill-opacity:1;"/>
<path d="M46.5445 108C45.2398 108 44.0283 107.767 42.9101 107.301C41.8087 106.835 40.8514 106.188 40.0381 105.36C39.2418 104.514 38.6149 103.522 38.1574 102.383C37.7168 101.244 37.4966 99.9927 37.4966 98.6294C37.4966 97.2833 37.7168 96.0408 38.1574 94.9018C38.6149 93.7629 39.2418 92.7706 40.0381 91.925C40.8514 91.0794 41.8087 90.4236 42.9101 89.9577C44.0283 89.4918 45.2398 89.2588 46.5445 89.2588C47.8491 89.2588 49.0436 89.4918 50.128 89.9577C51.2294 90.4236 52.1867 91.0794 53 91.925C53.8133 92.7706 54.4402 93.7715 54.8807 94.9277C55.3382 96.0667 55.5669 97.3006 55.5669 98.6294C55.5669 99.9754 55.3382 101.218 54.8807 102.357C54.4402 103.496 53.8133 104.488 53 105.334C52.1867 106.179 51.2294 106.835 50.128 107.301C49.0436 107.767 47.8491 108 46.5445 108ZM46.5445 104.324C47.29 104.324 47.9762 104.186 48.6031 103.91C49.23 103.617 49.7722 103.22 50.2297 102.719C50.7041 102.202 51.0684 101.598 51.3226 100.907C51.5767 100.217 51.7038 99.4577 51.7038 98.6294C51.7038 97.8183 51.5767 97.0676 51.3226 96.3773C51.0684 95.687 50.7041 95.083 50.2297 94.5653C49.7722 94.0476 49.23 93.6507 48.6031 93.3746C47.9762 93.0812 47.29 92.9345 46.5445 92.9345C45.7989 92.9345 45.1043 93.0812 44.4604 93.3746C43.8335 93.6507 43.2828 94.0476 42.8084 94.5653C42.3509 95.0658 41.9951 95.6698 41.741 96.3773C41.4868 97.0676 41.3597 97.8269 41.3597 98.6552C41.3597 99.7424 41.58 100.717 42.0205 101.58C42.478 102.426 43.088 103.099 43.8504 103.599C44.6298 104.083 45.5279 104.324 46.5445 104.324Z" fill="white" style="fill:white;fill-opacity:1;"/>
<path d="M31.2336 107.741V89.6211H35.0459V107.741H31.2336ZM20 107.741V89.6211H23.8123V107.741H20ZM21.5503 100.493V96.9208H33.1652V100.493H21.5503Z" fill="white" style="fill:white;fill-opacity:1;"/>
<path d="M160.039 107.741V89.6211H167.359C168.646 89.6211 169.824 89.8454 170.891 90.2941C171.959 90.7255 172.874 91.3468 173.636 92.1579C174.399 92.9517 174.983 93.9095 175.39 95.0312C175.797 96.1356 176 97.3522 176 98.681C176 100.027 175.797 101.252 175.39 102.357C174.983 103.461 174.399 104.419 173.636 105.23C172.874 106.024 171.959 106.645 170.891 107.094C169.841 107.525 168.663 107.741 167.359 107.741H160.039ZM163.851 104.894L163.445 104.246H167.232C167.994 104.246 168.672 104.117 169.265 103.858C169.875 103.599 170.392 103.228 170.815 102.745C171.256 102.245 171.586 101.658 171.806 100.985C172.027 100.295 172.137 99.5266 172.137 98.681C172.137 97.8354 172.027 97.0761 171.806 96.4031C171.586 95.7128 171.256 95.1261 170.815 94.6429C170.392 94.1424 169.875 93.7628 169.265 93.5039C168.672 93.2451 167.994 93.1156 167.232 93.1156H163.368L163.851 92.5203V104.894Z" fill="white" style="fill:white;fill-opacity:1;"/>
<path fill-rule="evenodd" clip-rule="evenodd" d="M134.75 89.0001C133.445 89.0001 132.234 89.233 131.116 89.699C130.014 90.1649 129.057 90.8121 128.244 91.6404C127.447 92.486 126.82 93.4783 126.363 94.6172C125.922 95.7562 125.702 97.0073 125.702 98.3706C125.702 99.7167 125.922 100.959 126.363 102.098C126.82 103.237 127.447 104.229 128.244 105.075C129.057 105.921 130.014 106.576 131.116 107.042C132.234 107.508 133.445 107.741 134.75 107.741C136.055 107.741 137.249 107.508 138.334 107.042C139.435 106.576 140.392 105.921 141.206 105.075C142.019 104.229 142.646 103.228 143.086 102.072C143.542 100.939 143.77 99.7115 143.772 98.3901H143.798L143.798 98.3448C143.798 97.2576 144.018 96.2825 144.459 95.4197C144.916 94.5741 145.526 93.9011 146.289 93.4006C147.068 92.9174 147.966 92.6758 148.983 92.6758C149.728 92.6758 150.415 92.8139 151.042 93.09C151.668 93.3834 152.211 93.7803 152.668 94.2807C153.143 94.7984 153.507 95.4024 153.761 96.0927C154.015 96.783 154.142 97.5423 154.142 98.3706C154.142 99.1817 154.015 99.9324 153.761 100.623C153.507 101.313 153.143 101.917 152.668 102.435C152.211 102.952 151.668 103.349 151.042 103.625C150.415 103.919 149.728 104.065 148.983 104.065C148.245 104.065 147.556 103.922 146.918 103.634C146.445 104.866 145.805 105.95 144.997 106.885C145.113 106.94 145.23 106.992 145.349 107.042C146.467 107.508 147.678 107.741 148.983 107.741C150.288 107.741 151.482 107.508 152.566 107.042C153.668 106.576 154.625 105.921 155.438 105.075C156.252 104.229 156.879 103.228 157.319 102.072C157.777 100.933 158.005 99.6994 158.005 98.3706C158.005 97.0246 157.777 95.7821 157.319 94.6431C156.879 93.5042 156.252 92.5119 155.438 91.6663C154.625 90.8207 153.668 90.1649 152.566 89.699C151.482 89.233 150.288 89.0001 148.983 89.0001C147.678 89.0001 146.467 89.233 145.349 89.699C144.247 90.1649 143.29 90.8121 142.477 91.6404C141.68 92.486 141.053 93.4783 140.596 94.6172C140.155 95.7562 139.935 97.0073 139.935 98.3706C139.935 98.4748 139.936 98.5783 139.939 98.6813H139.903C139.874 99.3742 139.75 100.021 139.528 100.623C139.274 101.313 138.91 101.917 138.435 102.435C137.978 102.952 137.436 103.349 136.809 103.625C136.182 103.919 135.496 104.065 134.75 104.065C134.005 104.065 133.31 103.919 132.666 103.625C132.039 103.349 131.488 102.952 131.014 102.435C130.556 101.934 130.201 101.33 129.947 100.623C129.692 99.9324 129.565 99.1731 129.565 98.3448C129.565 97.2576 129.786 96.2825 130.226 95.4197C130.684 94.5741 131.294 93.9011 132.056 93.4006C132.835 92.9174 133.733 92.6758 134.75 92.6758C135.496 92.6758 136.182 92.8139 136.809 93.09L136.809 93.09C137.302 91.8922 137.936 90.8185 138.711 89.8689C138.587 89.8097 138.461 89.7531 138.334 89.699C137.249 89.233 136.055 89.0001 134.75 89.0001Z" fill="white" style="fill:white;fill-opacity:1;"/>
</svg>
